<svg width="32" height="32" viewBox="0 0 32 32" fill="none" xmlns="http://www.w3.org/2000/svg">
<circle cx="16" cy="16" r="16" fill="#0E1011"/>
<path d="M8.66113 2.91833C9.20296 2.61438 9.87511 2.86118 10.1377 3.42419C10.4002 3.98732 10.153 4.6531 9.61524 4.96423C7.84881 5.98618 6.3483 7.42027 5.24609 9.15076C3.94194 11.1983 3.2494 13.5757 3.25 16.0033C3.25068 18.4311 3.94457 20.8088 5.25 22.8558C6.3531 24.5855 7.85428 26.0185 9.62109 27.0394C10.1589 27.3502 10.4064 28.0153 10.1445 28.5785C9.88232 29.1418 9.21002 29.39 8.66797 29.0863C6.51435 27.8797 4.68613 26.1569 3.35254 24.0658C1.81674 21.6576 1.0008 18.8605 1 16.0043C0.99921 13.148 1.8142 10.3509 3.34863 7.94177C4.6811 5.84984 6.50812 4.12616 8.66113 2.91833Z" fill="#E8002D"/>
<path d="M21.8555 3.42126C22.1177 2.85798 22.789 2.60981 23.3311 2.91345C25.4848 4.11995 27.3127 5.84286 28.6465 7.93396C30.1824 10.3421 30.9991 13.1392 31 15.9955C31.0009 18.8516 30.1866 21.6489 28.6523 24.058C27.32 26.1499 25.4927 27.8735 23.3398 29.0814C22.798 29.3854 22.1259 29.1386 21.8633 28.5756C21.6008 28.0126 21.8474 27.3478 22.3848 27.0365C24.1512 26.0145 25.6517 24.5796 26.7539 22.849C28.0581 20.8012 28.7508 18.4233 28.75 15.9955C28.7491 13.5678 28.0554 11.1907 26.75 9.14392C25.6467 7.41408 24.145 5.9812 22.3779 4.96033C21.8399 4.64953 21.5933 3.98454 21.8555 3.42126Z" fill="#E8002D"/>
<path d="M18.061 13.1117C18.0196 12.6571 17.8357 12.3038 17.5093 12.0517C17.187 11.7955 16.7262 11.6674 16.1271 11.6674C15.7304 11.6674 15.3998 11.7191 15.1353 11.8224C14.8709 11.9257 14.6725 12.0683 14.5403 12.2501C14.4081 12.4278 14.3399 12.6323 14.3357 12.8637C14.3275 13.0538 14.3647 13.2212 14.4473 13.3658C14.5341 13.5104 14.6581 13.6385 14.8192 13.7501C14.9845 13.8575 15.1829 13.9526 15.4143 14.0352C15.6457 14.1179 15.906 14.1902 16.1952 14.2522L17.2862 14.5001C17.9143 14.6365 18.468 14.8183 18.9473 15.0455C19.4308 15.2728 19.8357 15.5435 20.1622 15.8575C20.4928 16.1716 20.7428 16.5332 20.9122 16.9422C21.0816 17.3513 21.1684 17.81 21.1725 18.3183C21.1684 19.1199 20.9659 19.8079 20.5651 20.3823C20.1643 20.9567 19.5878 21.3968 18.8357 21.7026C18.0878 22.0084 17.1849 22.1612 16.1271 22.1612C15.0651 22.1612 14.1395 22.0022 13.3502 21.684C12.561 21.3658 11.9473 20.8823 11.5093 20.2336C11.0713 19.5848 10.8461 18.7646 10.8337 17.7728H13.7717C13.7965 18.1819 13.906 18.5228 14.1002 18.7955C14.2944 19.0683 14.561 19.2749 14.8998 19.4154C15.2428 19.5559 15.6395 19.6261 16.0899 19.6261C16.5031 19.6261 16.8543 19.5703 17.1436 19.4588C17.437 19.3472 17.6622 19.1922 17.8192 18.9939C17.9762 18.7955 18.0568 18.5683 18.061 18.3121C18.0568 18.0724 17.9824 17.8679 17.8378 17.6984C17.6932 17.5249 17.47 17.3761 17.1684 17.2522C16.8709 17.1241 16.4907 17.0063 16.0279 16.8989L14.7014 16.5889C13.6023 16.3369 12.7366 15.9298 12.1043 15.3679C11.4721 14.8017 11.1581 14.0373 11.1622 13.0745C11.1581 12.2893 11.3688 11.6013 11.7944 11.0104C12.22 10.4195 12.8089 9.95877 13.561 9.62819C14.313 9.29761 15.1705 9.13232 16.1333 9.13232C17.1167 9.13232 17.97 9.29968 18.6932 9.63439C19.4205 9.96497 19.9845 10.4298 20.3853 11.029C20.7862 11.6282 20.9907 12.3224 20.999 13.1117H18.061Z" fill="white"/>
</svg>
