<svg width="12" height="12" viewBox="0 0 12 12" fill="none" xmlns="http://www.w3.org/2000/svg">
<g clip-path="url(#clip0_9_463)">
<mask id="mask0_9_463" style="mask-type:luminance" maskUnits="userSpaceOnUse" x="0" y="0" width="12" height="12">
<path d="M11.7691 0.132446H0.105286V11.7963H11.7691V0.132446Z" fill="white"/>
</mask>
<g mask="url(#mask0_9_463)">
<path d="M0.105286 5.96431C0.105286 6.67768 0.233611 7.36101 0.468027 7.9928L5.9372 8.49991L11.4064 7.9928C11.6408 7.36101 11.7691 6.67768 11.7691 5.96431C11.7691 5.25094 11.6408 4.56762 11.4064 3.93583L5.9372 3.42871L0.468027 3.93583C0.233611 4.56762 0.105286 5.25094 0.105286 5.96431Z" fill="#FFDA44"/>
<path d="M11.4064 3.93588C10.5824 1.71511 8.44471 0.132446 5.93719 0.132446C3.42968 0.132446 1.29203 1.71511 0.468018 3.93588H11.4064Z" fill="#D80027"/>
<path d="M0.468018 7.9928C1.29203 10.2136 3.42968 11.7962 5.93719 11.7962C8.44471 11.7962 10.5824 10.2136 11.4064 7.9928H0.468018Z" fill="#D80027"/>
</g>
</g>
<defs>
<clipPath id="clip0_9_463">
<rect width="12" height="12" fill="white"/>
</clipPath>
</defs>
</svg>
